<mxfile host="app.diagrams.net" agent="Mozilla/5.0 (Windows NT 10.0; Win64; x64; rv:136.0) Gecko/20100101 Firefox/136.0" version="26.1.0">
  <diagram name="Page-1" id="8kwFFEw4dzD2qfGbF4Jt">
    <mxGraphModel dx="1734" dy="887" grid="1" gridSize="10" guides="1" tooltips="1" connect="1" arrows="1" fold="1" page="0" pageScale="1" pageWidth="827" pageHeight="1169" math="0" shadow="0">
      <root>
        <mxCell id="0" />
        <mxCell id="1" parent="0" />
        <mxCell id="GRVvKSQRntJlrCdpWK5Q-27" value="Attraction" style="swimlane;fontStyle=1;align=center;verticalAlign=top;childLayout=stackLayout;horizontal=1;startSize=26;horizontalStack=0;resizeParent=1;resizeParentMax=0;resizeLast=0;collapsible=1;marginBottom=0;whiteSpace=wrap;html=1;" parent="1" vertex="1">
          <mxGeometry x="-560" y="-120" width="160" height="144" as="geometry" />
        </mxCell>
        <mxCell id="GRVvKSQRntJlrCdpWK5Q-28" value="&lt;div&gt;+ name: str&lt;/div&gt;&lt;div&gt;+ location: str&lt;/div&gt;&lt;div&gt;+ capacity: intde&lt;/div&gt;&lt;div&gt;+ operating_hours: float&lt;/div&gt;&lt;div&gt;- age_restrictions: int&lt;/div&gt;&lt;div&gt;&lt;br&gt;&lt;br&gt;&lt;/div&gt;" style="text;strokeColor=none;fillColor=none;align=left;verticalAlign=top;spacingLeft=4;spacingRight=4;overflow=hidden;rotatable=0;points=[[0,0.5],[1,0.5]];portConstraint=eastwest;whiteSpace=wrap;html=1;" parent="GRVvKSQRntJlrCdpWK5Q-27" vertex="1">
          <mxGeometry y="26" width="160" height="84" as="geometry" />
        </mxCell>
        <mxCell id="GRVvKSQRntJlrCdpWK5Q-29" value="" style="line;strokeWidth=1;fillColor=none;align=left;verticalAlign=middle;spacingTop=-1;spacingLeft=3;spacingRight=3;rotatable=0;labelPosition=right;points=[];portConstraint=eastwest;strokeColor=inherit;" parent="GRVvKSQRntJlrCdpWK5Q-27" vertex="1">
          <mxGeometry y="110" width="160" height="8" as="geometry" />
        </mxCell>
        <mxCell id="GRVvKSQRntJlrCdpWK5Q-30" value="+ method(type): type" style="text;strokeColor=none;fillColor=none;align=left;verticalAlign=top;spacingLeft=4;spacingRight=4;overflow=hidden;rotatable=0;points=[[0,0.5,0,0,0],[0.33,1,0,0,0],[0.5,1,0,0,0],[0.67,1,0,0,0],[1,0.5,0,0,0]];portConstraint=eastwest;whiteSpace=wrap;html=1;" parent="GRVvKSQRntJlrCdpWK5Q-27" vertex="1">
          <mxGeometry y="118" width="160" height="26" as="geometry" />
        </mxCell>
        <mxCell id="GRVvKSQRntJlrCdpWK5Q-31" value="Show" style="swimlane;fontStyle=1;align=center;verticalAlign=top;childLayout=stackLayout;horizontal=1;startSize=26;horizontalStack=0;resizeParent=1;resizeParentMax=0;resizeLast=0;collapsible=1;marginBottom=0;whiteSpace=wrap;html=1;" parent="1" vertex="1">
          <mxGeometry x="-740" y="160" width="160" height="134" as="geometry" />
        </mxCell>
        <mxCell id="GRVvKSQRntJlrCdpWK5Q-32" value="&lt;div&gt;+ performances_type: str&lt;/div&gt;&lt;div&gt;+ duration: float&lt;/div&gt;&lt;div&gt;+ schedule: list [str]&lt;/div&gt;&lt;div&gt;+ performer_names: str&lt;/div&gt;" style="text;strokeColor=none;fillColor=none;align=left;verticalAlign=top;spacingLeft=4;spacingRight=4;overflow=hidden;rotatable=0;points=[[0,0.5],[1,0.5]];portConstraint=eastwest;whiteSpace=wrap;html=1;" parent="GRVvKSQRntJlrCdpWK5Q-31" vertex="1">
          <mxGeometry y="26" width="160" height="74" as="geometry" />
        </mxCell>
        <mxCell id="GRVvKSQRntJlrCdpWK5Q-33" value="" style="line;strokeWidth=1;fillColor=none;align=left;verticalAlign=middle;spacingTop=-1;spacingLeft=3;spacingRight=3;rotatable=0;labelPosition=right;points=[];portConstraint=eastwest;strokeColor=inherit;" parent="GRVvKSQRntJlrCdpWK5Q-31" vertex="1">
          <mxGeometry y="100" width="160" height="8" as="geometry" />
        </mxCell>
        <mxCell id="GRVvKSQRntJlrCdpWK5Q-34" value="+ method(type): type" style="text;strokeColor=none;fillColor=none;align=left;verticalAlign=top;spacingLeft=4;spacingRight=4;overflow=hidden;rotatable=0;points=[[0,0.5],[1,0.5]];portConstraint=eastwest;whiteSpace=wrap;html=1;" parent="GRVvKSQRntJlrCdpWK5Q-31" vertex="1">
          <mxGeometry y="108" width="160" height="26" as="geometry" />
        </mxCell>
        <mxCell id="GRVvKSQRntJlrCdpWK5Q-35" value="Ride" style="swimlane;fontStyle=1;align=center;verticalAlign=top;childLayout=stackLayout;horizontal=1;startSize=26;horizontalStack=0;resizeParent=1;resizeParentMax=0;resizeLast=0;collapsible=1;marginBottom=0;whiteSpace=wrap;html=1;" parent="1" vertex="1">
          <mxGeometry x="-560" y="160" width="160" height="134" as="geometry" />
        </mxCell>
        <mxCell id="GRVvKSQRntJlrCdpWK5Q-36" value="&lt;div&gt;+ ride_type: str&lt;/div&gt;&lt;div&gt;- height_requirement: float&lt;/div&gt;&lt;div&gt;+ speed: float&lt;/div&gt;&lt;div&gt;+ duration: float&lt;/div&gt;" style="text;strokeColor=none;fillColor=none;align=left;verticalAlign=top;spacingLeft=4;spacingRight=4;overflow=hidden;rotatable=0;points=[[0,0.5],[1,0.5]];portConstraint=eastwest;whiteSpace=wrap;html=1;" parent="GRVvKSQRntJlrCdpWK5Q-35" vertex="1">
          <mxGeometry y="26" width="160" height="74" as="geometry" />
        </mxCell>
        <mxCell id="GRVvKSQRntJlrCdpWK5Q-37" value="" style="line;strokeWidth=1;fillColor=none;align=left;verticalAlign=middle;spacingTop=-1;spacingLeft=3;spacingRight=3;rotatable=0;labelPosition=right;points=[];portConstraint=eastwest;strokeColor=inherit;" parent="GRVvKSQRntJlrCdpWK5Q-35" vertex="1">
          <mxGeometry y="100" width="160" height="8" as="geometry" />
        </mxCell>
        <mxCell id="GRVvKSQRntJlrCdpWK5Q-38" value="+ method(type): type" style="text;strokeColor=none;fillColor=none;align=left;verticalAlign=top;spacingLeft=4;spacingRight=4;overflow=hidden;rotatable=0;points=[[0,0.5],[1,0.5]];portConstraint=eastwest;whiteSpace=wrap;html=1;" parent="GRVvKSQRntJlrCdpWK5Q-35" vertex="1">
          <mxGeometry y="108" width="160" height="26" as="geometry" />
        </mxCell>
        <mxCell id="GRVvKSQRntJlrCdpWK5Q-39" value="Booth" style="swimlane;fontStyle=1;align=center;verticalAlign=top;childLayout=stackLayout;horizontal=1;startSize=26;horizontalStack=0;resizeParent=1;resizeParentMax=0;resizeLast=0;collapsible=1;marginBottom=0;whiteSpace=wrap;html=1;" parent="1" vertex="1">
          <mxGeometry x="-380" y="160" width="180" height="134" as="geometry" />
        </mxCell>
        <mxCell id="GRVvKSQRntJlrCdpWK5Q-40" value="&lt;div&gt;+ booth_type: str&lt;/div&gt;&lt;div&gt;- number_of_workers: int&lt;/div&gt;&lt;div&gt;+ product/service_offered: str&lt;/div&gt;&lt;div&gt;+ queue_capacity: int &lt;br&gt;&lt;/div&gt;" style="text;strokeColor=none;fillColor=none;align=left;verticalAlign=top;spacingLeft=4;spacingRight=4;overflow=hidden;rotatable=0;points=[[0,0.5],[1,0.5]];portConstraint=eastwest;whiteSpace=wrap;html=1;" parent="GRVvKSQRntJlrCdpWK5Q-39" vertex="1">
          <mxGeometry y="26" width="180" height="74" as="geometry" />
        </mxCell>
        <mxCell id="GRVvKSQRntJlrCdpWK5Q-41" value="" style="line;strokeWidth=1;fillColor=none;align=left;verticalAlign=middle;spacingTop=-1;spacingLeft=3;spacingRight=3;rotatable=0;labelPosition=right;points=[];portConstraint=eastwest;strokeColor=inherit;" parent="GRVvKSQRntJlrCdpWK5Q-39" vertex="1">
          <mxGeometry y="100" width="180" height="8" as="geometry" />
        </mxCell>
        <mxCell id="GRVvKSQRntJlrCdpWK5Q-42" value="+ method(type): type" style="text;strokeColor=none;fillColor=none;align=left;verticalAlign=top;spacingLeft=4;spacingRight=4;overflow=hidden;rotatable=0;points=[[0,0.5],[1,0.5]];portConstraint=eastwest;whiteSpace=wrap;html=1;" parent="GRVvKSQRntJlrCdpWK5Q-39" vertex="1">
          <mxGeometry y="108" width="180" height="26" as="geometry" />
        </mxCell>
        <mxCell id="GRVvKSQRntJlrCdpWK5Q-43" value="Vendor" style="swimlane;fontStyle=1;align=center;verticalAlign=top;childLayout=stackLayout;horizontal=1;startSize=26;horizontalStack=0;resizeParent=1;resizeParentMax=0;resizeLast=0;collapsible=1;marginBottom=0;whiteSpace=wrap;html=1;" parent="1" vertex="1">
          <mxGeometry x="280" y="-120" width="160" height="144" as="geometry" />
        </mxCell>
        <mxCell id="GRVvKSQRntJlrCdpWK5Q-44" value="&lt;div&gt;+ name: str&lt;/div&gt;&lt;div&gt;+ location: str&lt;/div&gt;&lt;div&gt;+ vendor_type: str&lt;/div&gt;&lt;div&gt;- permit_status: bool&lt;/div&gt;&lt;div&gt;- revenue: float&lt;/div&gt;" style="text;strokeColor=none;fillColor=none;align=left;verticalAlign=top;spacingLeft=4;spacingRight=4;overflow=hidden;rotatable=0;points=[[0,0.5],[1,0.5]];portConstraint=eastwest;whiteSpace=wrap;html=1;" parent="GRVvKSQRntJlrCdpWK5Q-43" vertex="1">
          <mxGeometry y="26" width="160" height="84" as="geometry" />
        </mxCell>
        <mxCell id="GRVvKSQRntJlrCdpWK5Q-45" value="" style="line;strokeWidth=1;fillColor=none;align=left;verticalAlign=middle;spacingTop=-1;spacingLeft=3;spacingRight=3;rotatable=0;labelPosition=right;points=[];portConstraint=eastwest;strokeColor=inherit;" parent="GRVvKSQRntJlrCdpWK5Q-43" vertex="1">
          <mxGeometry y="110" width="160" height="8" as="geometry" />
        </mxCell>
        <mxCell id="GRVvKSQRntJlrCdpWK5Q-46" value="+ method(type): type" style="text;strokeColor=none;fillColor=none;align=left;verticalAlign=top;spacingLeft=4;spacingRight=4;overflow=hidden;rotatable=0;points=[[0,0.5,0,0,0],[0.2,1,0,0,0],[0.4,1,0,0,0],[0.6,1,0,0,0],[0.8,1,0,0,0],[1,0.5,0,0,0]];portConstraint=eastwest;whiteSpace=wrap;html=1;" parent="GRVvKSQRntJlrCdpWK5Q-43" vertex="1">
          <mxGeometry y="118" width="160" height="26" as="geometry" />
        </mxCell>
        <mxCell id="GRVvKSQRntJlrCdpWK5Q-47" value="Food" style="swimlane;fontStyle=1;align=center;verticalAlign=top;childLayout=stackLayout;horizontal=1;startSize=26;horizontalStack=0;resizeParent=1;resizeParentMax=0;resizeLast=0;collapsible=1;marginBottom=0;whiteSpace=wrap;html=1;" parent="1" vertex="1">
          <mxGeometry x="-10" y="160" width="180" height="124" as="geometry" />
        </mxCell>
        <mxCell id="GRVvKSQRntJlrCdpWK5Q-48" value="&lt;div&gt;+ cuisine_type: str&lt;/div&gt;&lt;div&gt;+ health_inspection_status: str&lt;/div&gt;&lt;div&gt;+ menu_offering: list [str]&lt;/div&gt;" style="text;strokeColor=none;fillColor=none;align=left;verticalAlign=top;spacingLeft=4;spacingRight=4;overflow=hidden;rotatable=0;points=[[0,0.5],[1,0.5]];portConstraint=eastwest;whiteSpace=wrap;html=1;" parent="GRVvKSQRntJlrCdpWK5Q-47" vertex="1">
          <mxGeometry y="26" width="180" height="64" as="geometry" />
        </mxCell>
        <mxCell id="GRVvKSQRntJlrCdpWK5Q-49" value="" style="line;strokeWidth=1;fillColor=none;align=left;verticalAlign=middle;spacingTop=-1;spacingLeft=3;spacingRight=3;rotatable=0;labelPosition=right;points=[];portConstraint=eastwest;strokeColor=inherit;" parent="GRVvKSQRntJlrCdpWK5Q-47" vertex="1">
          <mxGeometry y="90" width="180" height="8" as="geometry" />
        </mxCell>
        <mxCell id="GRVvKSQRntJlrCdpWK5Q-50" value="+ method(type): type" style="text;strokeColor=none;fillColor=none;align=left;verticalAlign=top;spacingLeft=4;spacingRight=4;overflow=hidden;rotatable=0;points=[[0,0.5],[1,0.5]];portConstraint=eastwest;whiteSpace=wrap;html=1;" parent="GRVvKSQRntJlrCdpWK5Q-47" vertex="1">
          <mxGeometry y="98" width="180" height="26" as="geometry" />
        </mxCell>
        <mxCell id="GRVvKSQRntJlrCdpWK5Q-51" value="Merchandise" style="swimlane;fontStyle=1;align=center;verticalAlign=top;childLayout=stackLayout;horizontal=1;startSize=26;horizontalStack=0;resizeParent=1;resizeParentMax=0;resizeLast=0;collapsible=1;marginBottom=0;whiteSpace=wrap;html=1;" parent="1" vertex="1">
          <mxGeometry x="190" y="160" width="160" height="114" as="geometry" />
        </mxCell>
        <mxCell id="GRVvKSQRntJlrCdpWK5Q-52" value="&lt;div&gt;+ product_type: str&lt;/div&gt;&lt;div&gt;+ stock_quantity: int&lt;/div&gt;&lt;div&gt;- pricing: float&lt;/div&gt;" style="text;strokeColor=none;fillColor=none;align=left;verticalAlign=top;spacingLeft=4;spacingRight=4;overflow=hidden;rotatable=0;points=[[0,0.5],[1,0.5]];portConstraint=eastwest;whiteSpace=wrap;html=1;" parent="GRVvKSQRntJlrCdpWK5Q-51" vertex="1">
          <mxGeometry y="26" width="160" height="54" as="geometry" />
        </mxCell>
        <mxCell id="GRVvKSQRntJlrCdpWK5Q-53" value="" style="line;strokeWidth=1;fillColor=none;align=left;verticalAlign=middle;spacingTop=-1;spacingLeft=3;spacingRight=3;rotatable=0;labelPosition=right;points=[];portConstraint=eastwest;strokeColor=inherit;" parent="GRVvKSQRntJlrCdpWK5Q-51" vertex="1">
          <mxGeometry y="80" width="160" height="8" as="geometry" />
        </mxCell>
        <mxCell id="GRVvKSQRntJlrCdpWK5Q-54" value="+ method(type): type" style="text;strokeColor=none;fillColor=none;align=left;verticalAlign=top;spacingLeft=4;spacingRight=4;overflow=hidden;rotatable=0;points=[[0,0.5],[1,0.5]];portConstraint=eastwest;whiteSpace=wrap;html=1;" parent="GRVvKSQRntJlrCdpWK5Q-51" vertex="1">
          <mxGeometry y="88" width="160" height="26" as="geometry" />
        </mxCell>
        <mxCell id="GRVvKSQRntJlrCdpWK5Q-55" value="service" style="swimlane;fontStyle=1;align=center;verticalAlign=top;childLayout=stackLayout;horizontal=1;startSize=26;horizontalStack=0;resizeParent=1;resizeParentMax=0;resizeLast=0;collapsible=1;marginBottom=0;whiteSpace=wrap;html=1;" parent="1" vertex="1">
          <mxGeometry x="370" y="160" width="190" height="114" as="geometry" />
        </mxCell>
        <mxCell id="GRVvKSQRntJlrCdpWK5Q-56" value="&lt;div&gt;+ service_type: str&lt;/div&gt;&lt;div&gt;- required_equipement: list[str]&lt;/div&gt;&lt;div&gt;- staff_count: int&lt;/div&gt;&lt;div&gt;&lt;br&gt;&lt;/div&gt;" style="text;strokeColor=none;fillColor=none;align=left;verticalAlign=top;spacingLeft=4;spacingRight=4;overflow=hidden;rotatable=0;points=[[0,0.5],[1,0.5]];portConstraint=eastwest;whiteSpace=wrap;html=1;" parent="GRVvKSQRntJlrCdpWK5Q-55" vertex="1">
          <mxGeometry y="26" width="190" height="54" as="geometry" />
        </mxCell>
        <mxCell id="GRVvKSQRntJlrCdpWK5Q-57" value="" style="line;strokeWidth=1;fillColor=none;align=left;verticalAlign=middle;spacingTop=-1;spacingLeft=3;spacingRight=3;rotatable=0;labelPosition=right;points=[];portConstraint=eastwest;strokeColor=inherit;" parent="GRVvKSQRntJlrCdpWK5Q-55" vertex="1">
          <mxGeometry y="80" width="190" height="8" as="geometry" />
        </mxCell>
        <mxCell id="GRVvKSQRntJlrCdpWK5Q-58" value="+ method(type): type" style="text;strokeColor=none;fillColor=none;align=left;verticalAlign=top;spacingLeft=4;spacingRight=4;overflow=hidden;rotatable=0;points=[[0,0.5],[1,0.5]];portConstraint=eastwest;whiteSpace=wrap;html=1;" parent="GRVvKSQRntJlrCdpWK5Q-55" vertex="1">
          <mxGeometry y="88" width="190" height="26" as="geometry" />
        </mxCell>
        <mxCell id="GRVvKSQRntJlrCdpWK5Q-59" value="Entertainment" style="swimlane;fontStyle=1;align=center;verticalAlign=top;childLayout=stackLayout;horizontal=1;startSize=26;horizontalStack=0;resizeParent=1;resizeParentMax=0;resizeLast=0;collapsible=1;marginBottom=0;whiteSpace=wrap;html=1;" parent="1" vertex="1">
          <mxGeometry x="580" y="160" width="190" height="124" as="geometry" />
        </mxCell>
        <mxCell id="GRVvKSQRntJlrCdpWK5Q-60" value="&lt;div&gt;+ act_type: str&lt;/div&gt;&lt;div&gt;+ performance_duration: float&lt;/div&gt;&lt;div&gt;+ audience_capacity: int &lt;br&gt;&lt;/div&gt;" style="text;strokeColor=none;fillColor=none;align=left;verticalAlign=top;spacingLeft=4;spacingRight=4;overflow=hidden;rotatable=0;points=[[0,0.5],[1,0.5]];portConstraint=eastwest;whiteSpace=wrap;html=1;" parent="GRVvKSQRntJlrCdpWK5Q-59" vertex="1">
          <mxGeometry y="26" width="190" height="64" as="geometry" />
        </mxCell>
        <mxCell id="GRVvKSQRntJlrCdpWK5Q-61" value="" style="line;strokeWidth=1;fillColor=none;align=left;verticalAlign=middle;spacingTop=-1;spacingLeft=3;spacingRight=3;rotatable=0;labelPosition=right;points=[];portConstraint=eastwest;strokeColor=inherit;" parent="GRVvKSQRntJlrCdpWK5Q-59" vertex="1">
          <mxGeometry y="90" width="190" height="8" as="geometry" />
        </mxCell>
        <mxCell id="GRVvKSQRntJlrCdpWK5Q-62" value="+ method(type): type" style="text;strokeColor=none;fillColor=none;align=left;verticalAlign=top;spacingLeft=4;spacingRight=4;overflow=hidden;rotatable=0;points=[[0,0.5],[1,0.5]];portConstraint=eastwest;whiteSpace=wrap;html=1;" parent="GRVvKSQRntJlrCdpWK5Q-59" vertex="1">
          <mxGeometry y="98" width="190" height="26" as="geometry" />
        </mxCell>
        <mxCell id="GRVvKSQRntJlrCdpWK5Q-63" value="Map" style="swimlane;fontStyle=1;align=center;verticalAlign=top;childLayout=stackLayout;horizontal=1;startSize=26;horizontalStack=0;resizeParent=1;resizeParentMax=0;resizeLast=0;collapsible=1;marginBottom=0;whiteSpace=wrap;html=1;" parent="1" vertex="1">
          <mxGeometry x="-360" y="-360" width="160" height="134" as="geometry" />
        </mxCell>
        <mxCell id="GRVvKSQRntJlrCdpWK5Q-64" value="&lt;div&gt;+ layout_design: list[str]&lt;/div&gt;&lt;div&gt;+ entry_points: list[str]&lt;/div&gt;&lt;div&gt;+ major_attractions: list[str]&lt;/div&gt;&lt;div&gt;+ vendor_locations: list[str]&lt;/div&gt;" style="text;strokeColor=none;fillColor=none;align=left;verticalAlign=top;spacingLeft=4;spacingRight=4;overflow=hidden;rotatable=0;points=[[0,0.5],[1,0.5]];portConstraint=eastwest;whiteSpace=wrap;html=1;" parent="GRVvKSQRntJlrCdpWK5Q-63" vertex="1">
          <mxGeometry y="26" width="160" height="74" as="geometry" />
        </mxCell>
        <mxCell id="GRVvKSQRntJlrCdpWK5Q-65" value="" style="line;strokeWidth=1;fillColor=none;align=left;verticalAlign=middle;spacingTop=-1;spacingLeft=3;spacingRight=3;rotatable=0;labelPosition=right;points=[];portConstraint=eastwest;strokeColor=inherit;" parent="GRVvKSQRntJlrCdpWK5Q-63" vertex="1">
          <mxGeometry y="100" width="160" height="8" as="geometry" />
        </mxCell>
        <mxCell id="GRVvKSQRntJlrCdpWK5Q-66" value="+ method(type): type" style="text;strokeColor=none;fillColor=none;align=left;verticalAlign=top;spacingLeft=4;spacingRight=4;overflow=hidden;rotatable=0;points=[[0,0.5],[1,0.5]];portConstraint=eastwest;whiteSpace=wrap;html=1;" parent="GRVvKSQRntJlrCdpWK5Q-63" vertex="1">
          <mxGeometry y="108" width="160" height="26" as="geometry" />
        </mxCell>
        <mxCell id="GRVvKSQRntJlrCdpWK5Q-67" value="Admissions" style="swimlane;fontStyle=1;align=center;verticalAlign=top;childLayout=stackLayout;horizontal=1;startSize=26;horizontalStack=0;resizeParent=1;resizeParentMax=0;resizeLast=0;collapsible=1;marginBottom=0;whiteSpace=wrap;html=1;" parent="1" vertex="1">
          <mxGeometry x="-160" y="-360" width="170" height="134" as="geometry" />
        </mxCell>
        <mxCell id="GRVvKSQRntJlrCdpWK5Q-68" value="&lt;div&gt;- ticket_price: float&lt;/div&gt;&lt;div&gt;+ payment_methods: list[str]&lt;/div&gt;&lt;div&gt;+ daily_visitor_count: int&lt;/div&gt;&lt;div&gt;+ pass_options: list[str]&lt;/div&gt;" style="text;strokeColor=none;fillColor=none;align=left;verticalAlign=top;spacingLeft=4;spacingRight=4;overflow=hidden;rotatable=0;points=[[0,0.5],[1,0.5]];portConstraint=eastwest;whiteSpace=wrap;html=1;" parent="GRVvKSQRntJlrCdpWK5Q-67" vertex="1">
          <mxGeometry y="26" width="170" height="74" as="geometry" />
        </mxCell>
        <mxCell id="GRVvKSQRntJlrCdpWK5Q-69" value="" style="line;strokeWidth=1;fillColor=none;align=left;verticalAlign=middle;spacingTop=-1;spacingLeft=3;spacingRight=3;rotatable=0;labelPosition=right;points=[];portConstraint=eastwest;strokeColor=inherit;" parent="GRVvKSQRntJlrCdpWK5Q-67" vertex="1">
          <mxGeometry y="100" width="170" height="8" as="geometry" />
        </mxCell>
        <mxCell id="GRVvKSQRntJlrCdpWK5Q-70" value="+ method(type): type" style="text;strokeColor=none;fillColor=none;align=left;verticalAlign=top;spacingLeft=4;spacingRight=4;overflow=hidden;rotatable=0;points=[[0,0.5],[1,0.5]];portConstraint=eastwest;whiteSpace=wrap;html=1;" parent="GRVvKSQRntJlrCdpWK5Q-67" vertex="1">
          <mxGeometry y="108" width="170" height="26" as="geometry" />
        </mxCell>
        <mxCell id="GRVvKSQRntJlrCdpWK5Q-71" value="Schedule" style="swimlane;fontStyle=1;align=center;verticalAlign=top;childLayout=stackLayout;horizontal=1;startSize=26;horizontalStack=0;resizeParent=1;resizeParentMax=0;resizeLast=0;collapsible=1;marginBottom=0;whiteSpace=wrap;html=1;" parent="1" vertex="1">
          <mxGeometry x="50" y="-360" width="190" height="134" as="geometry" />
        </mxCell>
        <mxCell id="GRVvKSQRntJlrCdpWK5Q-72" value="&lt;div&gt;+ event_list: list[str]&lt;/div&gt;&lt;div&gt;+ start_times: list[str]&lt;/div&gt;&lt;div&gt;+ locations: list[str]&lt;/div&gt;&lt;div&gt;+ duration: list[str]&lt;/div&gt;" style="text;strokeColor=none;fillColor=none;align=left;verticalAlign=top;spacingLeft=4;spacingRight=4;overflow=hidden;rotatable=0;points=[[0,0.5],[1,0.5]];portConstraint=eastwest;whiteSpace=wrap;html=1;" parent="GRVvKSQRntJlrCdpWK5Q-71" vertex="1">
          <mxGeometry y="26" width="190" height="74" as="geometry" />
        </mxCell>
        <mxCell id="GRVvKSQRntJlrCdpWK5Q-73" value="" style="line;strokeWidth=1;fillColor=none;align=left;verticalAlign=middle;spacingTop=-1;spacingLeft=3;spacingRight=3;rotatable=0;labelPosition=right;points=[];portConstraint=eastwest;strokeColor=inherit;" parent="GRVvKSQRntJlrCdpWK5Q-71" vertex="1">
          <mxGeometry y="100" width="190" height="8" as="geometry" />
        </mxCell>
        <mxCell id="GRVvKSQRntJlrCdpWK5Q-74" value="+ method(type): type" style="text;strokeColor=none;fillColor=none;align=left;verticalAlign=top;spacingLeft=4;spacingRight=4;overflow=hidden;rotatable=0;points=[[0,0.5],[1,0.5]];portConstraint=eastwest;whiteSpace=wrap;html=1;" parent="GRVvKSQRntJlrCdpWK5Q-71" vertex="1">
          <mxGeometry y="108" width="190" height="26" as="geometry" />
        </mxCell>
        <mxCell id="m9fHu2rGhjxytUsYMepG-2" style="edgeStyle=orthogonalEdgeStyle;rounded=0;orthogonalLoop=1;jettySize=auto;html=1;exitX=0.5;exitY=0;exitDx=0;exitDy=0;entryX=0.5;entryY=1;entryDx=0;entryDy=0;entryPerimeter=0;endArrow=block;endFill=0;" edge="1" parent="1" source="GRVvKSQRntJlrCdpWK5Q-35" target="GRVvKSQRntJlrCdpWK5Q-30">
          <mxGeometry relative="1" as="geometry" />
        </mxCell>
        <mxCell id="m9fHu2rGhjxytUsYMepG-4" style="edgeStyle=orthogonalEdgeStyle;rounded=0;orthogonalLoop=1;jettySize=auto;html=1;exitX=0.5;exitY=0;exitDx=0;exitDy=0;entryX=0.33;entryY=1;entryDx=0;entryDy=0;entryPerimeter=0;endArrow=block;endFill=0;" edge="1" parent="1" source="GRVvKSQRntJlrCdpWK5Q-31" target="GRVvKSQRntJlrCdpWK5Q-30">
          <mxGeometry relative="1" as="geometry" />
        </mxCell>
        <mxCell id="m9fHu2rGhjxytUsYMepG-5" style="edgeStyle=orthogonalEdgeStyle;rounded=0;orthogonalLoop=1;jettySize=auto;html=1;exitX=0.5;exitY=0;exitDx=0;exitDy=0;entryX=0.67;entryY=1;entryDx=0;entryDy=0;entryPerimeter=0;endArrow=block;endFill=0;" edge="1" parent="1" source="GRVvKSQRntJlrCdpWK5Q-39" target="GRVvKSQRntJlrCdpWK5Q-30">
          <mxGeometry relative="1" as="geometry" />
        </mxCell>
        <mxCell id="m9fHu2rGhjxytUsYMepG-6" style="edgeStyle=orthogonalEdgeStyle;rounded=0;orthogonalLoop=1;jettySize=auto;html=1;exitX=0.5;exitY=0;exitDx=0;exitDy=0;entryX=0.4;entryY=1;entryDx=0;entryDy=0;entryPerimeter=0;endArrow=block;endFill=0;" edge="1" parent="1" source="GRVvKSQRntJlrCdpWK5Q-51" target="GRVvKSQRntJlrCdpWK5Q-46">
          <mxGeometry relative="1" as="geometry">
            <Array as="points">
              <mxPoint x="270" y="110" />
              <mxPoint x="344" y="110" />
            </Array>
          </mxGeometry>
        </mxCell>
        <mxCell id="m9fHu2rGhjxytUsYMepG-7" style="edgeStyle=orthogonalEdgeStyle;rounded=0;orthogonalLoop=1;jettySize=auto;html=1;exitX=0.5;exitY=0;exitDx=0;exitDy=0;entryX=0.6;entryY=1;entryDx=0;entryDy=0;entryPerimeter=0;endArrow=block;endFill=0;" edge="1" parent="1" source="GRVvKSQRntJlrCdpWK5Q-55" target="GRVvKSQRntJlrCdpWK5Q-46">
          <mxGeometry relative="1" as="geometry">
            <Array as="points">
              <mxPoint x="465" y="110" />
              <mxPoint x="376" y="110" />
            </Array>
          </mxGeometry>
        </mxCell>
        <mxCell id="m9fHu2rGhjxytUsYMepG-8" style="edgeStyle=orthogonalEdgeStyle;rounded=0;orthogonalLoop=1;jettySize=auto;html=1;exitX=0.5;exitY=0;exitDx=0;exitDy=0;entryX=0.8;entryY=1;entryDx=0;entryDy=0;entryPerimeter=0;endArrow=block;endFill=0;" edge="1" parent="1" source="GRVvKSQRntJlrCdpWK5Q-59" target="GRVvKSQRntJlrCdpWK5Q-46">
          <mxGeometry relative="1" as="geometry" />
        </mxCell>
        <mxCell id="m9fHu2rGhjxytUsYMepG-9" style="edgeStyle=orthogonalEdgeStyle;rounded=0;orthogonalLoop=1;jettySize=auto;html=1;exitX=0.5;exitY=0;exitDx=0;exitDy=0;entryX=0.2;entryY=1;entryDx=0;entryDy=0;entryPerimeter=0;endArrow=block;endFill=0;" edge="1" parent="1" source="GRVvKSQRntJlrCdpWK5Q-47" target="GRVvKSQRntJlrCdpWK5Q-46">
          <mxGeometry relative="1" as="geometry" />
        </mxCell>
      </root>
    </mxGraphModel>
  </diagram>
</mxfile>
